<svg clip-rule="evenodd" fill-rule="evenodd" image-rendering="optimizeQuality" shape-rendering="geometricPrecision" text-rendering="geometricPrecision" viewBox="0 0 43.3492 43.3492" xmlns="http://www.w3.org/2000/svg">
  <defs>
    <linearGradient id="grad1" x1="0%" y1="0%" x2="100%" y2="100%">
      <stop offset="0%" style="stop-color:#4F8CF7" />
      <stop offset="100%" style="stop-color:#A855F7" />
    </linearGradient>
  </defs>
  <g id="Layer_x0020_1">
    <g id="_216973752">
      <path id="_216976008" fill="url(#grad1)" d="m35.042 21.5129c-.2613 0-.4734-.2109-.4734-.4731 0-.2613.2119-.4732.4732-.4732h.0002c.261 0 .473.212 .473.4732.0001.2622-.212.4732-.473.4731z"/>
      <path id="_216975888" fill="url(#grad1)" d="m22.5308 21.5129c-.2613 0-.4734-.2109-.4734-.4731 0-.2613.2119-.4732.4732-.4732h.0002c.261 0 .473.212 .473.4732.0001.2622-.212.4732-.473.4731z"/>
      <path id="_216975816" fill="url(#grad1)" d="m33.1983 20.7352 7.4696 7.4705 1.5389-1.5389-7.4696-7.4705zm7.4696 8.612c-.1251 0-.2456-.0492-.3343-.1379l-8.1388-8.14c-.1852-.1843-.1854-.4839 0-.6683l2.2073-2.2083c.1854-.1853.4849-.1853.6693.0001l8.14 8.1388c.0887.0887.1378.2091.1378.3352.0002.1252-.0492.2455-.138.3342l-2.2081 2.2082c-.0887.0888-.2091.1381-.3352.138z"/>
      <path id="_216975960" fill="url(#grad1)" d="m15.3649 26.6668 1.54 1.5389 7.4694-7.4705-1.5389-1.5389zm1.54 2.6804c-.1262 0-.2466-.0492-.3353-.1379l-2.2082-2.2084c-.1843-.1853-.1844-.4839 0-.6692l8.14-8.139c.1843-.1853.4839-.1853.6682.0001l2.2084 2.2081c.0887.0887.1388.2091.1388.3343s-.0502.2455-.139.3342l-8.1388 8.1398c-.0888.0888-.2091.1381-.3341.138z"/>
      <path id="_216975360" fill="url(#grad1)" d="m35.1098 33.953c-.1202 0-.2405-.0454-.3332-.136-.1853-.1844-.1873-.4841-.004-.6694.8618-.8715 1.1968-1.4649 1.4867-2.1974l.0237-.0612c.2819-.7137.7541-1.9075 1.0607-2.562.1116-.2377.3933-.3392.6299-.2278.2367.1104.3381.3924.2277.629-.2947.6279-.7778 1.8514-1.0381 2.5089l-.0245.061c-.3844.9731-.843 1.6553-1.6927 2.5149-.0926.0936-.2149.14-.3362.14z"/>
      <path id="_216975168" fill="url(#grad1)" d="m28.9043 33.6819h.0009zm-.692.974c-.2664 0-.5513-.0887-.849-.2662-.2354-.141-.5767-.4939-1.1771-1.2204-.4584-.5541-1.2145-1.0401-1.8809-1.4699l-.0128-.0079c-1.1612-.7482-.0158-2.8302.1182-3.0649.4565-.7976.8597-1.3939 1.3082-1.9341.6044-.7266 1.6365-1.2668 3.1556-1.6533.1223-.0306.2445-.0611.3677-.0916 1.2906-.3215 2.5089-.625 3.4041-1.5399.1834-.1863.482-.1893.6693-.0069.1863.1834.1893.4831.0069.6694-1.0824 1.106-2.4901 1.456-3.8516 1.7952-.1212.0305-.2425.0611-.3637.0917-1.3179.3341-2.1886.7728-2.6607 1.3407-.417.5026-.7808 1.04-1.2146 1.7991-.4375.7649-.6496 1.6562-.4268 1.7991l.0128.0079c.7247.4662 1.5458.9957 2.0968 1.6621.6674.8063.8744.9749.9326 1.0104.1767.1045.3283.1518.4161.1262.0868-.0237.1626-.136.2079-.2159.1697-.4732.1637-.9079-.0177-1.3279-.0038-.0099-.0079-.0187-.0109-.0276-.1881-.5215-.7157-.9907-1.5674-1.3959-.2365-.1125-.3371-.3943-.2248-.6309.1125-.2357.3944-.3362.6309-.2238 1.0786.5126 1.7676 1.1574 2.0466 1.9154.277.6507.2839 1.3407.0197 2.0515-.0078.0187-.0158.0375-.0256.0562-.2.3775-.4702.6171-.8025.7108-.0995.0275-.2021.0414-.3073.0414z"/>
      <path id="_216975312" fill="url(#grad1)" d="m38.8047 30.0334c-.1202 0-.2416-.0463-.3343-.139l-6.9616-6.9619c-.1843-.1843-.1845-.484-.0002-.6683l1.2747-1.2747c.1845-.1853.4841-.1853.6694 0 .1843.1843.1843.4841 0 .6694l-.9405.9395 6.2925 6.2924.9405-.9395c.1843-.1854.4839-.1853.6693.0001.1845.1843.1843.484 0 .6693l-1.2746 1.2736c-.0927.0927-.214.1391-.3352.1391z"/>
      <path id="_216975192" fill="url(#grad1)" d="m29.4258 39.5445c-.3855 0-.7701-.1458-1.0639-.4386l-.7443-.7454c-.1843-.1843-.1844-.4839 0-.6693.1854-.1844.485-.1843.6694 0l.7444.7453c.2178.2168.5706.2169.7885 0 .1045-.1046.1617-.2445.1617-.3943 0-.1499-.0572-.2898-.1617-.3944-.1852-.1844-.1853-.484 0-.6683.1844-.1854.4841-.1854.6684-.001.2841.2838.4397.6615.4397 1.0637.0001.4022-.1558.7798-.4387 1.0627-.2936.2937-.6782.4396-1.0635.4396z"/>
      <path id="_216974976" fill="url(#grad1)" d="m31.1943 38.399c-.4022 0-.78-.1557-1.0629-.4396l-.8221-.8223c-.1852-.1843-.1854-.4839 0-.6693.1844-.1844.484-.1843.6684 0l.8233.8232c.1045.1044.2443.1616.3932.1616.15 0 .2898-.0571.3943-.1616.1046-.1045.1616-.2445.1616-.3943.0002-.15-.0571-.2899-.1616-.3944-.1842-.1844-.1844-.484 0-.6693.1853-.1844.484-.1844.6693.0009.2831.2829.4387.6605.4387 1.0628.0001.4021-.1557.7797-.4387 1.0636-.2828.2829-.6605.4387-1.0635.4387z"/>
      <path id="_216974904" fill="url(#grad1)" d="m33.2595 37.5493c-.4021 0-.7798-.1558-1.0628-.4387l-1.9933-1.9934c-.1852-.1843-.1853-.484 0-.6693.1844-.1844.484-.1844.6694 0l1.9923 1.9933c.1045.1045.2445.1617.3943.1617.1501-.0001.2899-.0572.3944-.1617.217-.2169.2168-.5708 0-.7877l-1.9223-1.9223c-.1843-.1844-.1845-.484-.0001-.6694.1855-.1844.485-.1843.6694 0l1.9225 1.9224c.5856.5865.5854 1.5398-.0002 2.1264-.2837.2828-.6615.4387-1.0636.4387z"/>
      <path id="_216974760" fill="url(#grad1)" d="m34.7166 36.0922c-.4021 0-.7799-.1557-1.0628-.4387-.1853-.1854-.1854-.485 0-.6693.1844-.1845.484-.1854.6693 0 .1047.1044.2445.1616.3934.1616.15-.0001.2898-.0571.3943-.1616.2397-.2396.1676-.5955-.0207-.8104l-3.2936-3.7392c-1.2076.831-2.0969.5511-2.9703-.2346-.2848.3026-.6624.6783-.8705.8242-.2137.1497-.5086.0985-.6595-.1154-.1497-.213-.0985-.5087.1154-.6585.2071-.1459.8813-.8478 1.0183-1.0243.0849-.1085.212-.1754.35-.1824.137-.0069.2711.0464.3657.1459.9101.9532 1.3614 1.1101 2.4133.2376.1972-.1627.488-.1399.6575.0523l3.5846 4.0694c.5559.6318.547 1.5359-.0208 2.1047-.2829.2829-.6605.4387-1.0636.4387z"/>
      <path id="_216975456" fill="url(#grad1)" d="m18.767 30.0334c-.1211 0-.2416-.0463-.3342-.139l-1.2746-1.2737c-.1843-.1853-.1844-.485-.0001-.6693.1855-.1855.485-.1854.6694 0l.9395.9394 6.2925-6.2924-.9394-.9395c-.1845-.1853-.1845-.485-.0002-.6694.1854-.1853.4851-.1853.6694 0l1.2747 1.2737c.1844.1853.1843.485 0 .6694l-6.9618 6.9617c-.0925.0927-.214.1391-.3352.1391z"/>
      <path id="_216975288" fill="url(#grad1)" d="m28.7672 26.03c-.1331 0-.2653-.0552-.359-.1637-.8693-1.0105-1.2224-.9828-1.7577-.9404-.5658.0434-1.2707.0986-2.433-.6911-.2158-.1469-.2721-.4406-.1252-.6575.1469-.2159.4407-.2721.6576-.1252.8874.6032 1.3437.5678 1.8277.5294.7996-.0622 1.4511-.0079 2.5473 1.2667.1707.1982.1479.4969-.0493.6674-.0897.0769-.1991.1144-.3084.1144z"/>
      <path id="_216974832" fill="url(#grad1)" d="m21.7521 33.885c-.1233 0-.2465-.0483-.3392-.143-1.0263-1.0558-1.2451-2.0859-1.4561-3.0836-.1291-.6113-.2632-1.2431-.5855-1.9302-.1103-.2367-.0089-.5186.2277-.629.2367-.1115.5185-.0098.6289.2278.3688.7847.5205 1.5023.6546 2.1352.2002.9444.3727 1.7607 1.2086 2.6194.1825.1872.1785.4869-.0088.6693-.0915.0897-.211.1341-.3302.1341z"/>
      <path id="_216975408" fill="url(#grad1)" d="m27.3466 36.798c-.1231 0-.2475.0464-.3412.1411l-1.0232 1.0222c-.1872.1883-.1874.4949-.0001.6832.1884.1883.4949.1883.6832 0l1.0224-1.0234c.0907-.0906.1399-.2118.1399-.341 0-.1301-.0493-.2514-.14-.341-.0935-.0947-.2179-.141-.341-.1411zm-1.0224 2.9328c-.3666 0-.7324-.1389-1.0104-.4179-.558-.557-.558-1.4639 0-2.0209l1.0224-1.0224c.557-.5569 1.4638-.5569 2.0208.0001.2692.269.417.6279.417 1.0104.0001.3825-.1479.7414-.417 1.0105l-1.0222 1.0222c-.279.279-.6449.4181-1.0106.418z"/>
      <path id="_216974400" fill="url(#grad1)" d="m24.9719 38.3793c-.3826 0-.7416-.1488-1.0107-.418-.5568-.557-.557-1.4639 0-2.0209l1.0233-1.0223c.557-.557 1.4639-.5579 2.0209 0 .2693.2691.417.628.417 1.0105.0002.3824-.1479.7413-.417 1.0105-.1852.1843-.485.1843-.6693 0-.1842-.1855-.1844-.4851 0-.6694.0908-.0908.1399-.212.1399-.3411.0002-.1302-.0493-.2514-.1399-.3411-.0906-.0907-.212-.141-.3411-.141-.1301 0-.2514.0503-.3421.141l-1.0222 1.0222c-.1883.1883-.1884.494-.0001.6823.0909.0906.2119.1409.3411.1409.1301 0 .2514-.0502.3421-.1409.1844-.1845.484-.1844.6683 0 .1855.1853.1854.485 0 .6693-.269.2691-.6279.418-1.0102.418z"/>
      <path id="_216974256" fill="url(#grad1)" d="m25.3188 35.7254c-.1214 0-.2426-.0462-.3343-.1379-.1852-.1854-.1853-.485 0-.6694.0898-.0908.14-.2119.14-.342 0-.1293-.0503-.2505-.14-.3411-.1883-.1884-.4949-.1884-.6832 0-.1843.1852-.484.1853-.6693 0-.1844-.1844-.1844-.4841 0-.6694.558-.5571 1.4639-.557 2.0209 0 .2703.269.418.6279.418 1.0105 0 .3824-.1479.7413-.418 1.0114-.0917.0916-.213.138-.3341.1379zm-1.6986 1.3014c-.3824 0-.7414-.1479-1.0105-.417-.5568-.5571-.557-1.464 0-2.021.1853-.1853.484-.1853.6693 0 .1846.1844.1844.4841 0 .6685-.1881.1882-.1883.4948 0 .6831.0907.0907.212.14.3411.14.1303-.0001.2514-.0493.3411-.14.1856-.1844.485-.1853.6694 0 .1853.1843.1853.4841 0 .6694-.2691.269-.628.417-1.0104.417z"/>
      <path id="_216974352" fill="url(#grad1)" d="m23.291 32.7423c-.1233 0-.2476.0465-.3412.1411l-1.0222 1.0222c-.0908.0907-.1411.2121-.1411.3412.0002.13.0503.2514.141.342.0899.0897.2109.1401.3411.1401.1292 0 .2504-.0503.3411-.1401l1.0225-1.0232c.1881-.1874.1881-.4939-.0002-.6822h.0002c-.0939-.0947-.2171-.141-.3412-.1411zm-1.0223 2.9329c-.3826 0-.7415-.1479-1.0106-.4179-.269-.2683-.418-.628-.418-1.0105.0001-.3816.1489-.7404.418-1.0105l1.0223-1.0223c.557-.557 1.464-.557 2.0209 0 .5572.557.557 1.464 0 2.021l-1.0223 1.0232c-.269.2691-.6279.417-1.0103.417z"/>
      <path id="_216974208" fill="url(#grad1)" d="m22.53 21.0397h.0009z"/>
      <path id="_216974160" fill="url(#grad1)" d="m21.2335 13.4973h-12.2349c-.2613 0-.4733-.2119-.4733-.4732.0001-.2613.212-.4731.4732-.4731l12.235-.0001c.2613 0 .4732.212.4732.4732.0001.2612-.212.4732-.4732.4732z"/>
      <path id="_216974136" fill="url(#grad1)" d="m24.6327 16.0407h-19.0331c-.2613 0-.4734-.2119-.4734-.4732 0-.2612.212-.4732.4732-.4732l19.0333-.0001c.2611 0 .4731.2121.4731.4733s-.212.4732-.4731.4732z"/>
      <path id="_216974112" fill="url(#grad1)" d="m16.5283 20.399h-12.7181c-.2613 0-.4732-.2119-.4732-.4732.0001-.2613.2119-.4732.4732-.4732l12.7181-.0001c.2613 0 .4731.2121.4731.4733s-.212.4732-.4731.4732z"/>
      <path id="_216974664" fill="url(#grad1)" d="m14.1623 23.3515h-10.3521c-.2613 0-.4732-.2119-.4732-.4731.0001-.2613.2119-.4732.4732-.4732l10.3521-.0002c.2612 0 .4731.2121.4731.4734.0002.2612-.2119.4731-.4731.4731z"/>
      <path id="_216974016" fill="url(#grad1)" d="m11.9147 26.303h-8.1045c-.2613 0-.4732-.2109-.4732-.4731.0001-.2613.2119-.4732.4732-.4732h8.1045c.2613 0 .4731.212.4731.4732 0 .2622-.212.4732-.4731.4731z"/>
      <path id="_216974568" fill="url(#grad1)" d="m14.1623 29.2555h-10.3521c-.2613 0-.4732-.2109-.4732-.4731.0001-.2613.2119-.4732.4732-.4732h10.3521c.2612 0 .4731.212.4731.4732.0002.2622-.2119.4732-.4731.4731z"/>
      <path id="_216973392" fill="url(#grad1)" d="m16.5283 32.2081h-12.7181c-.2613 0-.4732-.2119-.4732-.4732.0001-.2613.2119-.4732.4732-.4732h12.7181c.2613 0 .4731.212.4731.4732 0 .2613-.212.4732-.4731.4732z"/>
      <path id="_216973608" fill="url(#grad1)" d="m4.2836 9.6851h21.6651v-4.0575h-21.6651zm22.1382.9465h-22.6116c-.2613 0-.4732-.212-.4732-.4732l.0001-5.0041c0-.2613.2118-.4731.4731-.4731l22.6116-.0001c.2613 0 .4732.212.4732.4732l.0002 5.004c0 .2612-.2121.4733-.4734.4733z"/>
      <path id="_216973584" fill="url(#grad1)" d="m11.1093 38.6672h-7.2991c-.2613 0-.4732-.211-.4732-.4732.0001-.2614.2119-.4732.4732-.4732l7.2991-.0001c.2613 0 .473.2121.473.4733.0001.2621-.2119.4732-.473.4732z"/>
      <path id="_216973920" fill="url(#grad1)" d="m4.9204 37.1194c-.0455 0-.0909-.0068-.1372-.0206-.2494-.075-.3914-.3382-.3165-.5886.4772-1.5912 1.0026-2.3216 1.7045-2.3699.5709-.0375 1.0174.417 1.3545.9562.9316-1.3545 1.9273-1.3693 2.641-1.0991.2446.0916.3677.3647.276.6092-.0924.2445-.3657.3687-.6102.276-.2779-.1045-1.0173-.3844-1.9036 1.3999-.0806.1636-.2494.2652-.4308.2632-.1822-.003-.347-.1104-.4229-.277-.5263-1.1486-.834-1.184-.8389-1.184l.0001-.0001c-.004 0-.3757.0701-.8637 1.6977-.061.205-.2494.3371-.4523.3371z"/>
      <path id="_216973464" fill="url(#grad1)" d="m28.9081 42.1648h-27.5841c-.7295 0-1.324-.5934-1.324-1.3229v-38.3345c0-.7295.5944-1.3229 1.3239-1.3229l27.5842-.0001c.7295 0 1.3239.5935 1.3239 1.3231l.0001 22.8008c0 .2613-.2121.4733-.4733.4733-.2611-.0001-.4732-.212-.4732-.4732v-22.801c0-.208-.1696-.3765-.3776-.3765h-27.584c-.2081 0-.3776.1685-.3776.3766l.0001 38.3344c0 .2079.1694.3766.3774.3766l27.5842-.0001c.208 0 .3775-.1685.3775-.3765v-1.8248c0-.2622.2119-.4731.4732-.4731.2614 0 .4732.2109.4732.4731l.0001 1.8248c0 .7294-.5946 1.323-1.324 1.3229z"/>
    </g>
  </g>
  </svg>